<svg width="213" height="224" viewBox="0 0 213 224" fill="none" xmlns="http://www.w3.org/2000/svg">
<rect width="213" height="223.191" fill="white"/>
<path d="M74.0962 147.328L77.1825 156.663H77.3041L80.3847 147.328H82.7472L78.5665 159.188H75.9144L71.7394 147.328H74.0962ZM87.1987 159.361C86.307 159.361 85.5369 159.176 84.8883 158.805C84.2436 158.431 83.7476 157.902 83.4001 157.219C83.0527 156.532 82.879 155.723 82.879 154.792C82.879 153.878 83.0527 153.075 83.4001 152.384C83.7514 151.689 84.2417 151.148 84.8709 150.762C85.5002 150.372 86.2394 150.177 87.0887 150.177C87.6369 150.177 88.1542 150.266 88.6406 150.444C89.1309 150.617 89.5632 150.888 89.9377 151.254C90.316 151.621 90.6132 152.088 90.8294 152.656C91.0456 153.219 91.1537 153.891 91.1537 154.671V155.314H83.8634V153.901H89.1444C89.1405 153.499 89.0537 153.142 88.8838 152.829C88.7139 152.513 88.4765 152.264 88.1716 152.082C87.8704 151.901 87.5192 151.81 87.1177 151.81C86.6892 151.81 86.3128 151.915 85.9885 152.123C85.6642 152.328 85.4114 152.598 85.23 152.934C85.0524 153.266 84.9617 153.63 84.9578 154.028V155.261C84.9578 155.779 85.0524 156.223 85.2415 156.593C85.4307 156.96 85.6951 157.242 86.0348 157.439C86.3746 157.632 86.7722 157.728 87.2277 157.728C87.5327 157.728 87.8087 157.686 88.0557 157.601C88.3028 157.512 88.5171 157.383 88.6985 157.213C88.8799 157.043 89.017 156.833 89.1096 156.582L91.0668 156.802C90.9433 157.319 90.7078 157.771 90.3604 158.157C90.0168 158.539 89.5767 158.836 89.0401 159.049C88.5036 159.257 87.8898 159.361 87.1987 159.361ZM92.9271 159.188V150.293H94.9595V151.776H95.0522C95.2143 151.262 95.4923 150.866 95.886 150.589C96.2837 150.307 96.7372 150.166 97.2468 150.166C97.3626 150.166 97.4919 150.172 97.6348 150.183C97.7815 150.191 97.9031 150.204 97.9996 150.224V152.152C97.9108 152.121 97.7699 152.094 97.5769 152.071C97.3877 152.044 97.2044 152.03 97.0268 152.03C96.6446 152.03 96.301 152.113 95.9961 152.279C95.6949 152.441 95.4575 152.667 95.2838 152.957C95.1101 153.246 95.0232 153.58 95.0232 153.959V159.188H92.9271ZM99.3922 159.188V150.293H101.488V159.188H99.3922ZM100.446 149.031C100.114 149.031 99.8284 148.921 99.5891 148.701C99.3498 148.477 99.2301 148.209 99.2301 147.896C99.2301 147.579 99.3498 147.311 99.5891 147.091C99.8284 146.867 100.114 146.755 100.446 146.755C100.782 146.755 101.068 146.867 101.303 147.091C101.542 147.311 101.662 147.579 101.662 147.896C101.662 148.209 101.542 148.477 101.303 148.701C101.068 148.921 100.782 149.031 100.446 149.031ZM103.644 162.523V150.293H105.705V151.764H105.827C105.935 151.548 106.088 151.318 106.284 151.075C106.481 150.828 106.748 150.617 107.084 150.444C107.419 150.266 107.848 150.177 108.369 150.177C109.056 150.177 109.676 150.353 110.228 150.704C110.784 151.052 111.224 151.567 111.548 152.25C111.876 152.93 112.04 153.764 112.04 154.752C112.04 155.729 111.88 156.559 111.56 157.242C111.239 157.925 110.803 158.446 110.251 158.805C109.699 159.164 109.074 159.344 108.375 159.344C107.865 159.344 107.443 159.259 107.107 159.089C106.771 158.919 106.501 158.715 106.296 158.475C106.095 158.232 105.939 158.002 105.827 157.786H105.74V162.523H103.644ZM105.7 154.74C105.7 155.316 105.781 155.819 105.943 156.252C106.109 156.684 106.346 157.022 106.655 157.265C106.968 157.504 107.346 157.624 107.79 157.624C108.253 157.624 108.641 157.501 108.954 157.253C109.267 157.003 109.502 156.661 109.66 156.229C109.822 155.792 109.904 155.296 109.904 154.74C109.904 154.188 109.824 153.698 109.666 153.27C109.508 152.841 109.272 152.505 108.96 152.262C108.647 152.019 108.257 151.897 107.79 151.897C107.342 151.897 106.962 152.015 106.649 152.25C106.337 152.486 106.099 152.816 105.937 153.241C105.779 153.665 105.7 154.165 105.7 154.74ZM115.932 153.976V159.188H113.835V147.328H115.885V151.805H115.989C116.198 151.303 116.52 150.907 116.956 150.617C117.397 150.324 117.956 150.177 118.636 150.177C119.253 150.177 119.792 150.307 120.251 150.565C120.711 150.824 121.066 151.202 121.317 151.7C121.572 152.198 121.699 152.806 121.699 153.524V159.188H119.603V153.849C119.603 153.25 119.448 152.785 119.139 152.453C118.835 152.117 118.406 151.949 117.854 151.949C117.483 151.949 117.151 152.03 116.858 152.193C116.568 152.351 116.341 152.58 116.175 152.882C116.013 153.183 115.932 153.547 115.932 153.976ZM124.82 162.523C124.534 162.523 124.27 162.5 124.027 162.453C123.787 162.411 123.596 162.361 123.453 162.303L123.94 160.67C124.245 160.759 124.517 160.801 124.756 160.797C124.996 160.793 125.206 160.718 125.387 160.571C125.573 160.429 125.729 160.189 125.857 159.853L126.036 159.373L122.811 150.293H125.034L127.084 157.01H127.177L129.232 150.293H131.462L127.901 160.265C127.735 160.736 127.515 161.139 127.24 161.475C126.966 161.814 126.631 162.073 126.233 162.251C125.839 162.432 125.368 162.523 124.82 162.523ZM136.547 159.361C135.656 159.361 134.885 159.176 134.237 158.805C133.592 158.431 133.096 157.902 132.749 157.219C132.401 156.532 132.228 155.723 132.228 154.792C132.228 153.878 132.401 153.075 132.749 152.384C133.1 151.689 133.59 151.148 134.22 150.762C134.849 150.372 135.588 150.177 136.437 150.177C136.986 150.177 137.503 150.266 137.989 150.444C138.479 150.617 138.912 150.888 139.286 151.254C139.665 151.621 139.962 152.088 140.178 152.656C140.394 153.219 140.502 153.891 140.502 154.671V155.314H133.212V153.901H138.493C138.489 153.499 138.402 153.142 138.232 152.829C138.063 152.513 137.825 152.264 137.52 152.082C137.219 151.901 136.868 151.81 136.466 151.81C136.038 151.81 135.661 151.915 135.337 152.123C135.013 152.328 134.76 152.598 134.579 152.934C134.401 153.266 134.31 153.63 134.306 154.028V155.261C134.306 155.779 134.401 156.223 134.59 156.593C134.779 156.96 135.044 157.242 135.383 157.439C135.723 157.632 136.121 157.728 136.576 157.728C136.881 157.728 137.157 157.686 137.404 157.601C137.651 157.512 137.866 157.383 138.047 157.213C138.229 157.043 138.366 156.833 138.458 156.582L140.415 156.802C140.292 157.319 140.056 157.771 139.709 158.157C139.365 158.539 138.925 158.836 138.389 159.049C137.852 159.257 137.238 159.361 136.547 159.361Z" fill="black"/>
<path d="M103.808 148.64C103.344 148.64 102.913 148.604 102.515 148.534C102.118 148.463 101.72 148.356 101.323 148.214C92.3768 145.023 85.2532 139.119 79.9519 130.502C74.6506 121.886 72 112.611 72 102.678V82.5702C72 80.797 72.4811 79.2011 73.4433 77.7825C74.4055 76.3639 75.6473 75.3355 77.1687 74.6971L101.024 65.1218C101.952 64.7672 102.88 64.5898 103.808 64.5898C104.735 64.5898 105.663 64.7672 106.591 65.1218L130.447 74.6971C131.971 75.3355 133.214 76.3639 134.176 77.7825C135.138 79.2011 135.618 80.797 135.615 82.5702V102.678C135.615 112.608 132.965 121.883 127.663 130.502C122.362 139.121 115.239 145.025 106.293 148.214C105.895 148.356 105.497 148.463 105.1 148.534C104.702 148.604 104.272 148.64 103.808 148.64Z" fill="#003366"/>
<rect x="80.8535" y="60" width="6.26618" height="58.8351" fill="white"/>
<rect width="7.0056" height="31.6265" transform="matrix(0.596119 -0.802896 0.694741 0.71926 80.8018 118.816)" fill="white"/>
<rect width="7.09477" height="44.9279" transform="matrix(0.532117 0.846671 -0.752071 0.659082 122.9 118.285)" fill="white"/>
<rect width="6.33506" height="31.427" transform="matrix(0.999856 0.0169798 -0.0121779 0.999926 120.264 93.3672)" fill="white"/>
<rect width="6.36261" height="39.7338" transform="matrix(0.439154 -0.898412 0.826311 0.563214 104.862 83.832)" fill="white"/>
<rect width="6.21066" height="14.4495" transform="matrix(-0.222314 -0.974975 0.952989 -0.303005 95.3584 88.5625)" fill="white"/>
<path d="M102.896 93.509C103.175 93.2981 103.489 93.1875 103.808 93.1875C104.127 93.1875 104.441 93.2981 104.721 93.509L112.295 99.2203C112.592 99.4444 112.84 99.7738 113.012 100.174C113.185 100.574 113.276 101.031 113.276 101.496V112.704C113.276 113.169 113.184 113.625 113.012 114.025C112.839 114.425 112.592 114.754 112.295 114.978L104.721 120.69C104.441 120.9 104.127 121.011 103.808 121.011C103.489 121.011 103.175 120.9 102.896 120.69L95.3216 114.978C95.0245 114.754 94.7767 114.425 94.6042 114.024C94.4317 113.624 94.3407 113.168 94.3408 112.703V101.496C94.3407 101.031 94.4317 100.574 94.6042 100.174C94.7767 99.7738 95.0245 99.4444 95.3216 99.2203L102.896 93.509Z" fill="white"/>
<path d="M103.956 100.696C101.161 100.595 98.8228 103.302 98.734 106.743C98.6452 110.184 100.839 113.054 103.635 113.155C106.43 113.255 108.768 110.548 108.857 107.107C108.946 103.667 106.752 100.796 103.956 100.696ZM103.302 106.414L103.354 104.415L104.366 104.452L104.314 106.45C104.577 106.603 104.789 106.862 104.914 107.185C105.039 107.508 105.07 107.874 105.002 108.222C104.933 108.57 104.77 108.879 104.538 109.096C104.307 109.314 104.022 109.427 103.731 109.417C103.44 109.406 103.162 109.273 102.942 109.039C102.722 108.805 102.575 108.485 102.524 108.133C102.474 107.78 102.524 107.417 102.666 107.104C102.807 106.791 103.032 106.547 103.302 106.414Z" fill="#003366"/>
<path d="M74.0962 147.328L77.1825 156.663H77.3041L80.3847 147.328H82.7472L78.5665 159.188H75.9144L71.7394 147.328H74.0962ZM87.1987 159.361C86.307 159.361 85.5369 159.176 84.8883 158.805C84.2436 158.431 83.7476 157.902 83.4001 157.219C83.0527 156.532 82.879 155.723 82.879 154.792C82.879 153.878 83.0527 153.075 83.4001 152.384C83.7514 151.689 84.2417 151.148 84.8709 150.762C85.5002 150.372 86.2394 150.177 87.0887 150.177C87.6369 150.177 88.1542 150.266 88.6406 150.444C89.1309 150.617 89.5632 150.888 89.9377 151.254C90.316 151.621 90.6132 152.088 90.8294 152.656C91.0456 153.219 91.1537 153.891 91.1537 154.671V155.314H83.8634V153.901H89.1444C89.1405 153.499 89.0537 153.142 88.8838 152.829C88.7139 152.513 88.4765 152.264 88.1716 152.082C87.8704 151.901 87.5192 151.81 87.1177 151.81C86.6892 151.81 86.3128 151.915 85.9885 152.123C85.6642 152.328 85.4114 152.598 85.23 152.934C85.0524 153.266 84.9617 153.63 84.9578 154.028V155.261C84.9578 155.779 85.0524 156.223 85.2415 156.593C85.4307 156.96 85.6951 157.242 86.0348 157.439C86.3746 157.632 86.7722 157.728 87.2277 157.728C87.5327 157.728 87.8087 157.686 88.0557 157.601C88.3028 157.512 88.5171 157.383 88.6985 157.213C88.8799 157.043 89.017 156.833 89.1096 156.582L91.0668 156.802C90.9433 157.319 90.7078 157.771 90.3604 158.157C90.0168 158.539 89.5767 158.836 89.0401 159.049C88.5036 159.257 87.8898 159.361 87.1987 159.361ZM92.9271 159.188V150.293H94.9595V151.776H95.0522C95.2143 151.262 95.4923 150.866 95.886 150.589C96.2837 150.307 96.7372 150.166 97.2468 150.166C97.3626 150.166 97.4919 150.172 97.6348 150.183C97.7815 150.191 97.9031 150.204 97.9996 150.224V152.152C97.9108 152.121 97.7699 152.094 97.5769 152.071C97.3877 152.044 97.2044 152.03 97.0268 152.03C96.6446 152.03 96.301 152.113 95.9961 152.279C95.6949 152.441 95.4575 152.667 95.2838 152.957C95.1101 153.246 95.0232 153.58 95.0232 153.959V159.188H92.9271ZM99.3922 159.188V150.293H101.488V159.188H99.3922ZM100.446 149.031C100.114 149.031 99.8284 148.921 99.5891 148.701C99.3498 148.477 99.2301 148.209 99.2301 147.896C99.2301 147.579 99.3498 147.311 99.5891 147.091C99.8284 146.867 100.114 146.755 100.446 146.755C100.782 146.755 101.068 146.867 101.303 147.091C101.542 147.311 101.662 147.579 101.662 147.896C101.662 148.209 101.542 148.477 101.303 148.701C101.068 148.921 100.782 149.031 100.446 149.031ZM103.644 162.523V150.293H105.705V151.764H105.827C105.935 151.548 106.088 151.318 106.284 151.075C106.481 150.828 106.748 150.617 107.084 150.444C107.419 150.266 107.848 150.177 108.369 150.177C109.056 150.177 109.676 150.353 110.228 150.704C110.784 151.052 111.224 151.567 111.548 152.25C111.876 152.93 112.04 153.764 112.04 154.752C112.04 155.729 111.88 156.559 111.56 157.242C111.239 157.925 110.803 158.446 110.251 158.805C109.699 159.164 109.074 159.344 108.375 159.344C107.865 159.344 107.443 159.259 107.107 159.089C106.771 158.919 106.501 158.715 106.296 158.475C106.095 158.232 105.939 158.002 105.827 157.786H105.74V162.523H103.644ZM105.7 154.74C105.7 155.316 105.781 155.819 105.943 156.252C106.109 156.684 106.346 157.022 106.655 157.265C106.968 157.504 107.346 157.624 107.79 157.624C108.253 157.624 108.641 157.501 108.954 157.253C109.267 157.003 109.502 156.661 109.66 156.229C109.822 155.792 109.904 155.296 109.904 154.74C109.904 154.188 109.824 153.698 109.666 153.27C109.508 152.841 109.272 152.505 108.96 152.262C108.647 152.019 108.257 151.897 107.79 151.897C107.342 151.897 106.962 152.015 106.649 152.25C106.337 152.486 106.099 152.816 105.937 153.241C105.779 153.665 105.7 154.165 105.7 154.74ZM115.932 153.976V159.188H113.835V147.328H115.885V151.805H115.989C116.198 151.303 116.52 150.907 116.956 150.617C117.397 150.324 117.956 150.177 118.636 150.177C119.253 150.177 119.792 150.307 120.251 150.565C120.711 150.824 121.066 151.202 121.317 151.7C121.572 152.198 121.699 152.806 121.699 153.524V159.188H119.603V153.849C119.603 153.25 119.448 152.785 119.139 152.453C118.835 152.117 118.406 151.949 117.854 151.949C117.483 151.949 117.151 152.03 116.858 152.193C116.568 152.351 116.341 152.58 116.175 152.882C116.013 153.183 115.932 153.547 115.932 153.976ZM124.82 162.523C124.534 162.523 124.27 162.5 124.027 162.453C123.787 162.411 123.596 162.361 123.453 162.303L123.94 160.67C124.245 160.759 124.517 160.801 124.756 160.797C124.996 160.793 125.206 160.718 125.387 160.571C125.573 160.429 125.729 160.189 125.857 159.853L126.036 159.373L122.811 150.293H125.034L127.084 157.01H127.177L129.232 150.293H131.462L127.901 160.265C127.735 160.736 127.515 161.139 127.24 161.475C126.966 161.814 126.631 162.073 126.233 162.251C125.839 162.432 125.368 162.523 124.82 162.523ZM136.547 159.361C135.656 159.361 134.885 159.176 134.237 158.805C133.592 158.431 133.096 157.902 132.749 157.219C132.401 156.532 132.228 155.723 132.228 154.792C132.228 153.878 132.401 153.075 132.749 152.384C133.1 151.689 133.59 151.148 134.22 150.762C134.849 150.372 135.588 150.177 136.437 150.177C136.986 150.177 137.503 150.266 137.989 150.444C138.479 150.617 138.912 150.888 139.286 151.254C139.665 151.621 139.962 152.088 140.178 152.656C140.394 153.219 140.502 153.891 140.502 154.671V155.314H133.212V153.901H138.493C138.489 153.499 138.402 153.142 138.232 152.829C138.063 152.513 137.825 152.264 137.52 152.082C137.219 151.901 136.868 151.81 136.466 151.81C136.038 151.81 135.661 151.915 135.337 152.123C135.013 152.328 134.76 152.598 134.579 152.934C134.401 153.266 134.31 153.63 134.306 154.028V155.261C134.306 155.779 134.401 156.223 134.59 156.593C134.779 156.96 135.044 157.242 135.383 157.439C135.723 157.632 136.121 157.728 136.576 157.728C136.881 157.728 137.157 157.686 137.404 157.601C137.651 157.512 137.866 157.383 138.047 157.213C138.229 157.043 138.366 156.833 138.458 156.582L140.415 156.802C140.292 157.319 140.056 157.771 139.709 158.157C139.365 158.539 138.925 158.836 138.389 159.049C137.852 159.257 137.238 159.361 136.547 159.361Z" fill="#003366"/>
<rect x="125.78" y="125.09" width="1.82742" height="0.443327" transform="rotate(-43.5445 125.78 125.09)" fill="#003366"/>
<rect x="126.209" y="124.82" width="1.82742" height="0.767517" transform="rotate(-89.2777 126.209 124.82)" fill="#003366"/>
</svg>
